# File exported by Houdini 16.5.496 (www.sidefx.com)
# 25 points
# 80 vertices
# 19 primitives
# Bounds: [-0.370209754, 0.196481273, -0.00395908346] to [-0.195058763, 0.301894665, 0.00395908346]
g 
v -0.208756477 0.254653215 -7.88266175e-10
v -0.2010362 0.255047411 0.00395908346
v -0.195058763 0.255352616 0.00341391657
v -0.195058763 0.255352616 -0.00341391657
v -0.2010362 0.255047411 -0.00395908346
v -0.301427633 0.297790706 -0.00380422617
v -0.299650669 0.301894665 -0.00235114153
v -0.299650669 0.301894665 0.00235114084
v -0.301427633 0.297790706 0.00380422664
v -0.302525848 0.29525432 0
v -0.299975634 0.200382888 -0.00380422617
v -0.297789901 0.196481273 -0.00235114153
v -0.297789901 0.196481273 0.00235114084
v -0.299975634 0.200382888 0.00380422664
v -0.301326483 0.202794209 0
v -0.200631887 0.256338328 -0.00380422641
v -0.201220244 0.251905054 -0.00235114153
v -0.201220244 0.251905054 0.0023511406
v -0.200631887 0.256338328 0.00380422641
v -0.200268254 0.259078234 0
v -0.369621366 0.278765827 -0.00380422641
v -0.370209754 0.274332553 -0.00235114153
v -0.370209754 0.274332553 0.0023511406
v -0.369621366 0.278765827 0.00380422641
v -0.369257748 0.281505734 0
vt 0.364943355 0.027546417 0
vt 0.380898893 0.0706863552 0
vt 0.370446265 0.115722127 0
vt 0.258973628 0.15429987 0
vt 0.254385978 0.000974658877 0
vt 0.380898893 0.0706863552 0
vt 0.364943355 0.027546417 0
vt 0.942310572 0.0162783451 0
vt 0.905247331 0.0471549369 0
vt 0.364943355 0.027546417 0
vt 0.254385978 0.000974658877 0
vt 0.971260905 0.000974658877 0
vt 0.942310572 0.0162783451 0
vt 0.026603654 0.796487153 0
vt 0.0263157841 0.765478671 0
vt 0.781171501 0.751461983 0
vt 0.781589508 0.796487153 0
vt 0.258973628 0.15429987 0
vt 0.370446265 0.115722127 0
vt 0.943732738 0.0739855468 0
vt 0.979303837 0.0884202942 0
vt 0.370446265 0.115722127 0
vt 0.380898893 0.0706863552 0
vt 0.905247331 0.0471549369 0
vt 0.943732738 0.0739855468 0
vt 0.944876313 0.603346467 0
vt 0.97618717 0.588079751 0
vt 0.998415411 0.618479311 0
vt 0.9763726 0.649013698 0
vt 0.94052124 0.637485445 0
vt 0.387668461 0.203087285 0
vt 0.370673269 0.148148149 0
vt 0.97618717 0.588079751 0
vt 0.944876313 0.603346467 0
vt 0.0212255362 0.285616964 0
vt 0.00292396732 0.250487328 0
vt 0.642036736 0.69835484 0
vt 0.623950005 0.723521888 0
vt 0.000974658877 0.242316797 0
vt 0.0271129087 0.205653027 0
vt 0.658844948 0.664633274 0
vt 0.640843749 0.689883351 0
vt 0.650209188 0.750105262 0
vt 0.611038983 0.74423182 0
vt 0.000974679773 0.316711426 0
vt 0.0188872349 0.291423023 0
vt 0.330409348 0.204519287 0
vt 0.387668461 0.203087285 0
vt 0.944876313 0.603346467 0
vt 0.94052124 0.637485445 0
vt 0.936807215 0.723676503 0
vt 0.943213165 0.690478802 0
vt 0.972864568 0.673968017 0
vt 0.999002278 0.704660475 0
vt 0.974111021 0.738973379 0
vt 0.0547728986 0.0471481457 0
vt 0.0232520681 0.0622987673 0
vt 0.000974658877 0.0316366665 0
vt 0.0232519116 0.000974658877 0
vt 0.0592974201 0.0126865916 0
vt 0.0019493259 0.0894151926 0
vt 0.020176312 0.0643275082 0
vt 0.92967391 0.725109041 0
vt 0.911446691 0.750196636 0
vt 0.000974712195 0.179083601 0
vt 0.0192018058 0.15399608 0
vt 0.92869693 0.814781249 0
vt 0.91046977 0.839868724 0
vt 0.000974658877 0.135224 0
vt 0.0192018338 0.110136449 0
vt 0.928696811 0.770921469 0
vt 0.91046977 0.796009123 0
vt 0.972864568 0.673968017 0
vt 0.943213165 0.690478802 0
vt 0.0547728986 0.0471481457 0
vt 0.0592974201 0.0126865916 0
vt 0.943213165 0.690478802 0
vt 0.936807215 0.723676503 0
vt 0.0232520681 0.0622987673 0
vt 0.0547728986 0.0471481457 0
vn -0.577707708 -0.0355518498 -0.815469086
vn -0.827883959 -0.560899377 3.85538158e-07
vn -0.577707469 -0.035552267 0.815469265
vn -0.216368109 0.831534505 0.511600614
vn -0.216367945 0.831535101 -0.511599779
vn -0.827883959 -0.560899377 3.85538158e-07
vn -0.577707708 -0.0355518498 -0.815469086
vn -0.142439723 -0.00724042393 -0.989776969
vn -0.998694181 -0.0510867313 -4.31417106e-08
vn -0.577707708 -0.0355518498 -0.815469086
vn -0.216367945 0.831535101 -0.511599779
vn 0.508800805 0.0259876177 -0.860491872
vn -0.142439723 -0.00724042393 -0.989776969
vn -0.216367945 0.831535101 -0.511599779
vn -0.216368109 0.831534505 0.511600614
vn 0.508800924 0.0259866044 0.860491872
vn 0.508800805 0.0259876177 -0.860491872
vn -0.216368109 0.831534505 0.511600614
vn -0.577707469 -0.035552267 0.815469265
vn -0.142439693 -0.00724109868 0.989776969
vn 0.508800924 0.0259866044 0.860491872
vn -0.577707469 -0.035552267 0.815469265
vn -0.827883959 -0.560899377 3.85538158e-07
vn -0.998694181 -0.0510867313 -4.31417106e-08
vn -0.142439693 -0.00724109868 0.989776969
vn -0.880750418 0.473580807 0
vn -0.578292847 -0.0234217681 -0.815492928
vn -0.130652055 -0.849228382 -0.511606455
vn -0.130651653 -0.84922874 0.511606097
vn -0.578292787 -0.0234224126 0.815492988
vn -0.998694181 -0.0510867313 -4.31417106e-08
vn -0.142439723 -0.00724042393 -0.989776969
vn -0.578292847 -0.0234217681 -0.815492928
vn -0.880750418 0.473580807 0
vn -0.142439723 -0.00724042393 -0.989776969
vn 0.508800805 0.0259876177 -0.860491872
vn -0.130652055 -0.849228382 -0.511606455
vn -0.578292847 -0.0234217681 -0.815492928
vn 0.508800805 0.0259876177 -0.860491872
vn 0.508800924 0.0259866044 0.860491872
vn -0.130651653 -0.84922874 0.511606097
vn -0.130652055 -0.849228382 -0.511606455
vn 0.508800924 0.0259866044 0.860491872
vn -0.142439693 -0.00724109868 0.989776969
vn -0.578292787 -0.0234224126 0.815492988
vn -0.130651653 -0.84922874 0.511606097
vn -0.142439693 -0.00724109868 0.989776969
vn -0.998694181 -0.0510867313 -4.31417106e-08
vn -0.880750418 0.473580807 0
vn -0.578292787 -0.0234224126 0.815492988
vn 0.555744469 0.191415668 -0.809016764
vn 0.633074343 0.774091005 9.40080014e-08
vn 0.55574435 0.191415548 0.809016883
vn 0.43062222 -0.751374781 0.500000536
vn 0.430622309 -0.751374722 -0.500000417
vn -0.409246355 0.912423909 0
vn -0.486577064 0.329750955 -0.809015989
vn -0.611702383 -0.613040388 -0.500001729
vn -0.611702383 -0.613040447 0.500001729
vn -0.486577094 0.329750955 0.809016109
vn 0.555744469 0.191415668 -0.809016764
vn 0.430622309 -0.751374722 -0.500000417
vn -0.611702383 -0.613040388 -0.500001729
vn -0.486577064 0.329750955 -0.809015989
vn 0.430622309 -0.751374722 -0.500000417
vn 0.43062222 -0.751374781 0.500000536
vn -0.611702383 -0.613040447 0.500001729
vn -0.611702383 -0.613040388 -0.500001729
vn 0.43062222 -0.751374781 0.500000536
vn 0.55574435 0.191415548 0.809016883
vn -0.486577094 0.329750955 0.809016109
vn -0.611702383 -0.613040447 0.500001729
vn 0.55574435 0.191415548 0.809016883
vn 0.633074343 0.774091005 9.40080014e-08
vn -0.409246355 0.912423909 0
vn -0.486577094 0.329750955 0.809016109
vn 0.633074343 0.774091005 9.40080014e-08
vn 0.555744469 0.191415668 -0.809016764
vn -0.486577064 0.329750955 -0.809015989
vn -0.409246355 0.912423909 0
g 
f 6/1/1 10/2/2 9/3/3 8/4/4 7/5/5
f 10/6/6 6/7/7 5/8/8 1/9/9
f 6/10/10 7/11/11 4/12/12 5/13/13
f 7/14/14 8/15/15 3/16/16 4/17/17
f 8/18/18 9/19/19 2/20/20 3/21/21
f 9/22/22 10/23/23 1/24/24 2/25/25
f 15/26/26 11/27/27 12/28/28 13/29/29 14/30/30
f 1/31/31 5/32/32 11/33/33 15/34/34
f 5/35/35 4/36/36 12/37/37 11/38/38
f 4/39/39 3/40/40 13/41/41 12/42/42
f 3/43/43 2/44/44 14/45/45 13/46/46
f 2/47/47 1/48/48 15/49/49 14/50/50
f 16/51/51 20/52/52 19/53/53 18/54/54 17/55/55
f 25/56/56 21/57/57 22/58/58 23/59/59 24/60/60
f 16/61/61 17/62/62 22/63/63 21/64/64
f 17/65/65 18/66/66 23/67/67 22/68/68
f 18/69/69 19/70/70 24/71/71 23/72/72
f 19/73/73 20/74/74 25/75/75 24/76/76
f 20/77/77 16/78/78 21/79/79 25/80/80
